<?xml version="1.0" encoding="UTF-8"?><svg id="_레이어_2" xmlns="http://www.w3.org/2000/svg" viewBox="0 0 600.74 96.18"><defs><style>.cls-1{fill:#d38019;}.cls-2{fill:#16513d;}.cls-3{fill:#e1d7c7;}.cls-4{fill:#929292;}.cls-5{fill:#910023;}</style></defs><g id="_레이어_1-2"><path class="cls-4" d="M154.49,85.61c-1.1-1.23-2.24-2.65-3.61-4.25-.37-.42-.59-.47-.85-.41v2.74c0,1.26.15,1.35,1.38,1.44v.48h-3.9v-.48c1.14-.09,1.26-.18,1.26-1.44v-5.67c0-1.3-.12-1.38-1.32-1.47v-.47h3.89v.47c-1.16.09-1.31.19-1.31,1.47v2.49c.35-.07.63-.28,1.07-.67.82-.78,1.73-1.72,2.39-2.54.4-.48.4-.63-.23-.7l-.35-.04v-.47h3.64v.47c-1.13.12-1.51.25-2.42,1.07-.56.51-1.58,1.55-2.55,2.52,1.1,1.38,2.68,3.2,3.43,3.99.75.79,1.09.92,1.79,1v.48h-2.3Z"/><path class="cls-4" d="M163.59,82.28c0,2.39-1.76,3.5-3.21,3.5-2.05,0-3.26-1.63-3.26-3.25,0-2.45,1.91-3.55,3.26-3.55,1.82,0,3.21,1.47,3.21,3.3ZM158.52,82.06c0,1.83.82,3.18,2.02,3.18.89,0,1.66-.66,1.66-2.64,0-1.72-.7-3.08-1.98-3.08-.88,0-1.7.86-1.7,2.54Z"/><path class="cls-4" d="M166.73,80.55c.48-.79,1.08-1.57,1.8-1.57.53,0,.88.4.88.75,0,.32-.19.62-.48.76-.18.07-.31.04-.4-.04-.22-.21-.38-.29-.63-.29-.4,0-.89.45-1.2,1.29v2.59c0,.95.07,1.04,1.23,1.13v.44h-3.46v-.44c.94-.09,1.04-.18,1.04-1.13v-2.99c0-.97-.06-1.01-.91-1.11v-.4c.73-.12,1.39-.31,2.1-.6v1.61h.03Z"/><path class="cls-4" d="M175.27,84.38c-.95,1.16-1.97,1.41-2.45,1.41-1.8,0-2.87-1.48-2.87-3.14,0-1.01.38-1.94.97-2.58.62-.69,1.41-1.08,2.19-1.08,1.25,0,2.24,1.1,2.24,2.29,0,.32-.06.46-.34.51-.25.03-2.13.18-3.87.23.03,1.92,1.14,2.73,2.17,2.73.62,0,1.17-.23,1.7-.73l.26.37ZM171.21,81.36c.81,0,1.63,0,2.48-.03.28-.01.37-.09.37-.31,0-.78-.51-1.45-1.29-1.45-.67,0-1.32.62-1.55,1.79Z"/><path class="cls-4" d="M180.99,85.79c-.21,0-.53-.13-.67-.28-.21-.21-.29-.41-.37-.65-.6.4-1.29.92-1.76.92-1.04,0-1.79-.87-1.79-1.83,0-.72.38-1.19,1.22-1.47.89-.31,1.98-.72,2.3-.97v-.22c0-1.04-.51-1.63-1.23-1.63-.29,0-.51.12-.67.29-.18.19-.29.51-.43.95-.07.23-.23.35-.45.35-.28,0-.66-.29-.66-.66,0-.22.19-.4.48-.6.4-.29,1.35-.85,2.21-1.03.45,0,.91.13,1.23.4.51.44.66,1.04.66,1.8v2.7c0,.67.26.89.51.89.19,0,.4-.09.54-.18l.18.44-1.31.75ZM179.92,82.08c-.32.16-1.03.47-1.33.62-.59.26-.89.54-.89,1.07,0,.75.59,1.1,1.03,1.1.4-.01.94-.28,1.2-.53v-2.26Z"/><path class="cls-4" d="M196.57,76.55c-.88.06-1.23.25-1.29.84-.06.41-.09,1.03-.09,2.39v1.13c0,1.75-.28,3.01-1.13,3.9-.7.72-1.7,1.03-2.67,1.03-.87,0-1.72-.21-2.39-.72-.87-.66-1.29-1.76-1.29-3.52v-3.59c0-1.28-.13-1.35-1.32-1.45v-.47h3.89v.47c-1.17.09-1.29.16-1.29,1.45v3.28c0,2.51,1.06,3.7,2.76,3.7,2.01,0,2.77-1.6,2.77-4.13v-1.07c0-1.36-.04-1.96-.1-2.42-.09-.56-.43-.73-1.47-.81v-.47h3.62v.47Z"/><path class="cls-4" d="M200.98,85.61v-.44c.85-.09.94-.21.94-1.17v-2.45c0-1.03-.37-1.66-1.32-1.66-.6,0-1.17.37-1.63.76v3.39c0,1,.09,1.04.97,1.13v.44h-3.23v-.44c1.01-.1,1.07-.18,1.07-1.13v-2.98c0-.94-.09-1-.89-1.13v-.4c.73-.13,1.45-.32,2.08-.6v1.17c.29-.22.6-.44.98-.67.4-.28.81-.45,1.23-.45,1.19,0,1.92.82,1.92,2.26v2.8c0,1,.09,1.03.97,1.13v.44h-3.09Z"/><path class="cls-4" d="M204.91,85.61v-.44c.94-.09,1.04-.18,1.04-1.16v-2.98c0-.91-.03-.97-.94-1.1v-.4c.79-.13,1.5-.32,2.13-.59v5.06c0,.98.1,1.07,1.06,1.16v.44h-3.28ZM205.67,76.97c0-.46.37-.81.79-.81s.78.35.78.81c0,.42-.35.78-.79.78-.41,0-.78-.35-.78-.78Z"/><path class="cls-4" d="M215.49,79.6c-.81.09-.92.23-1.31,1.07-.51,1.11-1.28,2.9-2.1,5.09h-.45c-.66-1.76-1.33-3.4-2.04-5.12-.34-.84-.47-.94-1.26-1.04v-.44h3.08v.44c-.81.09-.84.19-.6.82.37,1,.98,2.57,1.38,3.56.5-1.17.98-2.49,1.31-3.43.22-.69.13-.87-.69-.95v-.44h2.68v.44Z"/><path class="cls-4" d="M221.06,84.38c-.95,1.16-1.97,1.41-2.45,1.41-1.8,0-2.87-1.48-2.87-3.14,0-1.01.38-1.94.97-2.58.62-.69,1.41-1.08,2.19-1.08,1.25,0,2.24,1.1,2.24,2.29,0,.32-.06.46-.34.51-.25.03-2.13.18-3.87.23.03,1.92,1.14,2.73,2.17,2.73.62,0,1.17-.23,1.7-.73l.26.37ZM217,81.36c.81,0,1.63,0,2.48-.03.28-.01.37-.09.37-.31,0-.78-.51-1.45-1.29-1.45-.67,0-1.32.62-1.55,1.79Z"/><path class="cls-4" d="M224.27,80.55c.48-.79,1.08-1.57,1.8-1.57.53,0,.88.4.88.75,0,.32-.19.62-.48.76-.18.07-.31.04-.4-.04-.22-.21-.38-.29-.63-.29-.4,0-.89.45-1.2,1.29v2.59c0,.95.07,1.04,1.23,1.13v.44h-3.46v-.44c.94-.09,1.04-.18,1.04-1.13v-2.99c0-.97-.06-1.01-.91-1.11v-.4c.73-.12,1.39-.31,2.1-.6v1.61h.03Z"/><path class="cls-4" d="M231.36,80.95c-.29-.89-.79-1.45-1.5-1.45-.56,0-.94.43-.94,1,0,.62.57.95,1.25,1.23,1.11.45,1.89.97,1.89,2.02,0,1.35-1.28,2.04-2.46,2.04-.76,0-1.47-.29-1.73-.51-.1-.21-.25-1.22-.25-1.76l.47-.07c.25.97.89,1.82,1.77,1.82.53,0,1.04-.43,1.04-1.03,0-.63-.43-.95-1.14-1.29-.92-.42-1.89-.89-1.89-2.04,0-1.04.89-1.92,2.27-1.92.62,0,1.01.13,1.32.26.13.32.31,1.22.34,1.58l-.44.12Z"/><path class="cls-4" d="M233,85.61v-.44c.94-.09,1.04-.18,1.04-1.16v-2.98c0-.91-.03-.97-.94-1.1v-.4c.79-.13,1.5-.32,2.13-.59v5.06c0,.98.1,1.07,1.06,1.16v.44h-3.28ZM233.77,76.97c0-.46.37-.81.79-.81s.78.35.78.81c0,.42-.35.78-.79.78-.41,0-.78-.35-.78-.78Z"/><path class="cls-4" d="M239.85,85.58c-.26.15-.51.21-.66.21-.94,0-1.47-.59-1.47-1.76v-4.24h-1.03l-.07-.18.42-.46h.67v-1.03l.97-1,.22.03v1.99h1.67c.15.15.1.51-.09.63h-1.58v3.72c0,1.17.48,1.38.87,1.38.35,0,.7-.15.91-.25l.15.42-.98.51Z"/><path class="cls-4" d="M248.15,79.58c-.78.13-.92.25-1.32,1.07-.35.76-.82,1.96-1.83,4.35-1,2.36-1.31,3.17-1.51,3.96-.09.29-.28.37-.5.37-.43,0-.87-.38-.87-.75,0-.23.12-.37.37-.54.47-.28.75-.63,1.08-1.25.26-.48.38-.78.44-.97.07-.22.07-.42-.01-.67-.6-1.66-1.25-3.45-1.69-4.49-.31-.76-.47-.97-1.28-1.08v-.43h3.02v.43c-.67.12-.75.28-.56.79l1.33,3.65c.41-1.01,1.03-2.65,1.35-3.62.18-.54.07-.7-.76-.82v-.43h2.73v.43Z"/><path class="cls-4" d="M251.98,85.61v-.48c1.22-.09,1.33-.15,1.33-1.39v-5.78c0-1.25-.12-1.32-1.33-1.41v-.47h3.96v.47c-1.22.09-1.35.16-1.35,1.41v5.78c0,1.25.13,1.3,1.35,1.39v.48h-3.96Z"/><path class="cls-4" d="M261,85.61v-.44c.85-.09.94-.21.94-1.17v-2.45c0-1.03-.37-1.66-1.32-1.66-.6,0-1.17.37-1.63.76v3.39c0,1,.09,1.04.97,1.13v.44h-3.23v-.44c1.01-.1,1.07-.18,1.07-1.13v-2.98c0-.94-.09-1-.89-1.13v-.4c.73-.13,1.45-.32,2.08-.6v1.17c.29-.22.6-.44.98-.67.4-.28.81-.45,1.23-.45,1.19,0,1.92.82,1.92,2.26v2.8c0,1,.09,1.03.97,1.13v.44h-3.09Z"/><path class="cls-4" d="M268.66,80.95c-.29-.89-.79-1.45-1.5-1.45-.56,0-.94.43-.94,1,0,.62.57.95,1.25,1.23,1.11.45,1.89.97,1.89,2.02,0,1.35-1.28,2.04-2.46,2.04-.76,0-1.47-.29-1.73-.51-.1-.21-.25-1.22-.25-1.76l.47-.07c.25.97.89,1.82,1.77,1.82.53,0,1.04-.43,1.04-1.03,0-.63-.43-.95-1.14-1.29-.92-.42-1.89-.89-1.89-2.04,0-1.04.89-1.92,2.27-1.92.62,0,1.01.13,1.32.26.13.32.31,1.22.34,1.58l-.44.12Z"/><path class="cls-4" d="M273.22,85.58c-.26.15-.51.21-.66.21-.94,0-1.47-.59-1.47-1.76v-4.24h-1.03l-.07-.18.42-.46h.67v-1.03l.97-1,.22.03v1.99h1.67c.15.15.1.51-.09.63h-1.58v3.72c0,1.17.48,1.38.87,1.38.35,0,.7-.15.91-.25l.15.42-.98.51Z"/><path class="cls-4" d="M274.89,85.61v-.44c.94-.09,1.04-.18,1.04-1.16v-2.98c0-.91-.03-.97-.94-1.1v-.4c.79-.13,1.5-.32,2.13-.59v5.06c0,.98.1,1.07,1.06,1.16v.44h-3.28ZM275.65,76.97c0-.46.37-.81.79-.81s.78.35.78.81c0,.42-.35.78-.79.78-.41,0-.78-.35-.78-.78Z"/><path class="cls-4" d="M281.74,85.58c-.26.15-.51.21-.66.21-.94,0-1.47-.59-1.47-1.76v-4.24h-1.03l-.07-.18.42-.46h.67v-1.03l.97-1,.22.03v1.99h1.67c.15.15.1.51-.09.63h-1.58v3.72c0,1.17.48,1.38.87,1.38.35,0,.7-.15.91-.25l.15.42-.98.51Z"/><path class="cls-4" d="M290.42,85.26c-.69.1-1.47.31-2.2.53l-.1-.09v-1.03c-.34.25-.66.51-1.09.75-.43.25-.73.37-1.14.37-1,0-1.85-.6-1.85-2.23v-2.79c0-.85-.06-.89-.92-1.04v-.41c.72-.04,1.44-.13,2.16-.26-.04.5-.04,1.25-.04,2.17v1.95c0,1.29.65,1.64,1.32,1.64.53,0,1.06-.22,1.57-.69v-3.36c0-.87-.07-.91-1.16-1.04v-.41c.78-.03,1.55-.1,2.35-.26v4.88c0,.75.13.84.7.87h.41v.46Z"/><path class="cls-4" d="M296.51,84.38c-.95,1.16-1.97,1.41-2.45,1.41-1.8,0-2.87-1.48-2.87-3.14,0-1.01.38-1.94.97-2.58.62-.69,1.41-1.08,2.18-1.08,1.25,0,2.24,1.1,2.24,2.29,0,.32-.06.46-.34.51-.25.03-2.13.18-3.87.23.03,1.92,1.14,2.73,2.17,2.73.62,0,1.17-.23,1.7-.73l.26.37ZM292.45,81.36c.81,0,1.63,0,2.48-.03.28-.01.37-.09.37-.31,0-.78-.51-1.45-1.29-1.45-.67,0-1.32.62-1.55,1.79Z"/><path class="cls-4" d="M302.02,79.16v-.25c0-.44.06-.88.16-1.19.1-.32.34-1.04,1.11-1.72.53-.45,1.09-.72,1.66-.79.51.01.94.21,1.19.5.13.16.15.37.09.54-.06.1-.15.23-.29.35-.15.12-.28.12-.42-.03-.28-.26-.7-.54-1.17-.54-.4,0-.62.18-.79.44-.18.26-.35.94-.34,2.17v.51h1.75c.09.13.01.53-.15.63h-1.6v4.19c0,1.04.1,1.08,1.28,1.2v.42h-3.52v-.44c.95-.09,1.06-.18,1.06-1.12v-4.27h-1.04l-.07-.18.41-.46h.7Z"/><path class="cls-4" d="M311.87,82.28c0,2.39-1.76,3.5-3.21,3.5-2.05,0-3.26-1.63-3.26-3.25,0-2.45,1.91-3.55,3.26-3.55,1.82,0,3.21,1.47,3.21,3.3ZM306.8,82.06c0,1.83.82,3.18,2.02,3.18.89,0,1.66-.66,1.66-2.64,0-1.72-.7-3.08-1.98-3.08-.88,0-1.7.86-1.7,2.54Z"/><path class="cls-4" d="M315.01,80.55c.48-.79,1.08-1.57,1.8-1.57.53,0,.88.4.88.75,0,.32-.19.62-.48.76-.18.07-.31.04-.4-.04-.22-.21-.38-.29-.63-.29-.4,0-.89.45-1.2,1.29v2.59c0,.95.07,1.04,1.23,1.13v.44h-3.46v-.44c.94-.09,1.04-.18,1.04-1.13v-2.99c0-.97-.06-1.01-.91-1.11v-.4c.73-.12,1.39-.31,2.1-.6v1.61h.03Z"/><path class="cls-4" d="M332.19,76.55c-1.23.1-1.35.16-1.35,1.38v5.84c0,1.22.13,1.28,1.34,1.36v.48h-4.02v-.48c1.29-.09,1.41-.15,1.41-1.36v-2.86h-5v2.86c0,1.2.13,1.28,1.35,1.36v.48h-3.94v-.48c1.2-.09,1.32-.15,1.32-1.36v-5.84c0-1.22-.12-1.28-1.36-1.38v-.47h3.91v.47c-1.14.1-1.28.16-1.28,1.38v2.29h5v-2.29c0-1.2-.12-1.28-1.29-1.38v-.47h3.91v.47Z"/><path class="cls-4" d="M338.3,84.38c-.95,1.16-1.96,1.41-2.45,1.41-1.8,0-2.87-1.48-2.87-3.14,0-1.01.38-1.94.97-2.58.62-.69,1.41-1.08,2.19-1.08,1.25,0,2.24,1.1,2.24,2.29,0,.32-.06.46-.34.51-.25.03-2.13.18-3.87.23.03,1.92,1.14,2.73,2.17,2.73.62,0,1.17-.23,1.7-.73l.26.37ZM334.24,81.36c.81,0,1.63,0,2.48-.03.28-.01.37-.09.37-.31,0-.78-.51-1.45-1.29-1.45-.67,0-1.32.62-1.55,1.79Z"/><path class="cls-4" d="M344.02,85.79c-.21,0-.53-.13-.67-.28-.21-.21-.29-.41-.37-.65-.6.4-1.29.92-1.76.92-1.04,0-1.79-.87-1.79-1.83,0-.72.38-1.19,1.22-1.47.89-.31,1.98-.72,2.3-.97v-.22c0-1.04-.51-1.63-1.23-1.63-.29,0-.51.12-.67.29-.18.19-.29.51-.42.95-.07.23-.23.35-.45.35-.28,0-.66-.29-.66-.66,0-.22.19-.4.48-.6.4-.29,1.35-.85,2.21-1.03.45,0,.91.13,1.23.4.51.44.66,1.04.66,1.8v2.7c0,.67.26.89.51.89.19,0,.4-.09.54-.18l.18.44-1.3.75ZM342.94,82.08c-.32.16-1.03.47-1.33.62-.59.26-.89.54-.89,1.07,0,.75.59,1.1,1.03,1.1.4-.01.94-.28,1.2-.53v-2.26Z"/><path class="cls-4" d="M345.7,85.61v-.44c.95-.1,1.08-.18,1.08-1.13v-6.82c0-.98-.1-1.01-1.04-1.08v-.43c.81-.07,1.72-.32,2.21-.5v8.83c0,.95.13,1.04,1.1,1.13v.44h-3.36Z"/><path class="cls-4" d="M352.57,85.58c-.26.15-.51.21-.66.21-.94,0-1.47-.59-1.47-1.76v-4.24h-1.03l-.07-.18.43-.46h.67v-1.03l.97-1,.22.03v1.99h1.67c.15.15.1.51-.09.63h-1.58v3.72c0,1.17.48,1.38.87,1.38.35,0,.7-.15.91-.25l.15.42-.98.51Z"/><path class="cls-4" d="M358.25,85.61v-.44c.85-.09.98-.18.98-1.13v-2.39c0-1.2-.47-1.79-1.45-1.79-.57,0-1.13.28-1.54.76v3.42c0,.94.09,1.04.97,1.13v.44h-3.18v-.44c.89-.09,1.04-.16,1.04-1.12v-6.86c0-.92-.04-.98-1.03-1.07v-.41c.72-.1,1.61-.32,2.2-.5v4.82c.53-.53,1.33-1.06,2.11-1.06,1.22,0,2.07.78,2.07,2.51v2.57c0,.95.1,1.04.98,1.12v.44h-3.15Z"/><path class="cls-4" d="M370.44,85.79c-.21,0-.53-.13-.67-.28-.21-.21-.29-.41-.37-.65-.6.4-1.29.92-1.76.92-1.04,0-1.79-.87-1.79-1.83,0-.72.38-1.19,1.22-1.47.89-.31,1.98-.72,2.3-.97v-.22c0-1.04-.51-1.63-1.23-1.63-.29,0-.51.12-.67.29-.18.19-.29.51-.42.95-.07.23-.23.35-.45.35-.28,0-.66-.29-.66-.66,0-.22.19-.4.48-.6.4-.29,1.35-.85,2.21-1.03.45,0,.91.13,1.23.4.51.44.66,1.04.66,1.8v2.7c0,.67.26.89.51.89.19,0,.4-.09.54-.18l.18.44-1.3.75ZM369.37,82.08c-.32.16-1.03.47-1.33.62-.59.26-.89.54-.89,1.07,0,.75.59,1.1,1.03,1.1.4-.01.94-.28,1.2-.53v-2.26Z"/><path class="cls-4" d="M376.42,85.61v-.44c.85-.09.94-.21.94-1.17v-2.45c0-1.03-.37-1.66-1.32-1.66-.6,0-1.17.37-1.63.76v3.39c0,1,.09,1.04.97,1.13v.44h-3.23v-.44c1.01-.1,1.07-.18,1.07-1.13v-2.98c0-.94-.09-1-.89-1.13v-.4c.73-.13,1.45-.32,2.08-.6v1.17c.29-.22.6-.44.98-.67.4-.28.81-.45,1.23-.45,1.19,0,1.92.82,1.92,2.26v2.8c0,1,.09,1.03.97,1.13v.44h-3.09Z"/><path class="cls-4" d="M387.53,85.23c-.32.06-1.45.25-2.33.56v-.95l-.91.54c-.56.32-.97.41-1.13.41-1.19,0-2.76-1.08-2.76-3.15s1.82-3.65,3.83-3.65c.19,0,.64.04.97.18v-1.95c0-.95-.07-1-1.14-1.07v-.43c.79-.1,1.79-.32,2.33-.5v8.65c0,.76.12.84.66.89l.48.03v.44ZM385.2,80.33c-.37-.51-.97-.75-1.51-.75-.66,0-1.92.54-1.92,2.65,0,1.75,1.08,2.58,2.02,2.58.51,0,1.04-.23,1.41-.5v-3.99Z"/><path class="cls-4" d="M396.84,78.35c-.25-.91-.6-1.95-1.88-1.95-1.13,0-1.61.82-1.61,1.57,0,1.06.7,1.57,1.85,2.14,1.16.57,2.57,1.26,2.57,2.92s-1.32,2.8-3.29,2.8c-.62,0-1.1-.1-1.47-.23-.35-.1-.57-.22-.72-.29-.12-.34-.31-1.51-.41-2.3l.51-.12c.22.89.87,2.36,2.38,2.36,1.08,0,1.75-.66,1.75-1.72s-.81-1.6-1.92-2.17c-.97-.51-2.43-1.23-2.43-2.87,0-1.44,1.14-2.62,3.05-2.62.65,0,1.26.13,1.88.34.06.53.15,1.08.26,2.07l-.51.09Z"/><path class="cls-4" d="M405.56,82.28c0,2.39-1.76,3.5-3.21,3.5-2.05,0-3.25-1.63-3.25-3.25,0-2.45,1.91-3.55,3.25-3.55,1.82,0,3.21,1.47,3.21,3.3ZM400.49,82.06c0,1.83.82,3.18,2.02,3.18.89,0,1.66-.66,1.66-2.64,0-1.72-.7-3.08-1.98-3.08-.88,0-1.7.86-1.7,2.54Z"/><path class="cls-4" d="M412.34,84.29c-.64.85-1.64,1.5-2.52,1.5-1.89,0-2.99-1.51-2.99-3.09,0-1.14.51-2.13,1.5-2.87.76-.59,1.67-.84,2.24-.84.62,0,1.1.19,1.33.38.2.18.25.29.25.45,0,.34-.35.67-.51.67-.09,0-.16-.04-.28-.16-.47-.41-.98-.6-1.5-.6-.97,0-1.8.84-1.8,2.35,0,2.01,1.38,2.67,2.21,2.67.62,0,1.1-.18,1.79-.81l.28.35Z"/><path class="cls-4" d="M413.07,85.61v-.44c.94-.09,1.04-.18,1.04-1.16v-2.98c0-.91-.03-.97-.94-1.1v-.4c.79-.13,1.5-.32,2.13-.59v5.06c0,.98.1,1.07,1.06,1.16v.44h-3.28ZM413.84,76.97c0-.46.37-.81.79-.81s.78.35.78.81c0,.42-.35.78-.79.78-.41,0-.78-.35-.78-.78Z"/><path class="cls-4" d="M421.81,85.79c-.21,0-.53-.13-.67-.28-.21-.21-.29-.41-.37-.65-.6.4-1.29.92-1.76.92-1.04,0-1.79-.87-1.79-1.83,0-.72.38-1.19,1.22-1.47.89-.31,1.98-.72,2.3-.97v-.22c0-1.04-.51-1.63-1.23-1.63-.29,0-.51.12-.67.29-.18.19-.29.51-.42.95-.07.23-.23.35-.45.35-.28,0-.66-.29-.66-.66,0-.22.19-.4.48-.6.4-.29,1.35-.85,2.21-1.03.45,0,.91.13,1.23.4.51.44.66,1.04.66,1.8v2.7c0,.67.26.89.51.89.19,0,.4-.09.54-.18l.18.44-1.3.75ZM420.74,82.08c-.32.16-1.03.47-1.33.62-.59.26-.89.54-.89,1.07,0,.75.59,1.1,1.03,1.1.4-.01.94-.28,1.2-.53v-2.26Z"/><path class="cls-4" d="M423.49,85.61v-.44c.95-.1,1.08-.18,1.08-1.13v-6.82c0-.98-.1-1.01-1.04-1.08v-.43c.81-.07,1.72-.32,2.21-.5v8.83c0,.95.13,1.04,1.1,1.13v.44h-3.36Z"/><path class="cls-4" d="M436.95,85.61v-.48c.97-.12,1.07-.23.88-.79-.19-.56-.47-1.31-.76-2.13h-3.18c-.21.59-.41,1.17-.6,1.76-.31.91-.19,1.06.92,1.16v.48h-3.29v-.48c.95-.13,1.16-.21,1.67-1.51l3.04-7.62.51-.13c.91,2.46,1.91,5.29,2.84,7.79.45,1.26.65,1.39,1.63,1.48v.48h-3.67ZM435.54,77.79h-.03c-.47,1.25-.92,2.51-1.36,3.72h2.68l-1.29-3.72Z"/><path class="cls-4" d="M442.31,78.97c0-.35.07-.73.19-1.07.13-.35.41-1,1.13-1.57.6-.48,1.19-.73,1.91-.81.87.03,1.44.4,1.75.73.65-.66,1.3-.95,1.95-1.06.53.03.97.23,1.23.53.12.15.13.32.07.48-.04.12-.21.28-.32.38-.15.12-.31.15-.45,0-.26-.26-.69-.6-1.17-.6-.4,0-.62.21-.78.48-.19.28-.34.94-.32,2.24v.44h1.77c.07.13.03.53-.15.63h-1.63v4.25c0,.97.1,1.04,1.23,1.14v.42h-3.34v-.42c.82-.1.92-.18.92-1.14v-4.25h-2.8v4.25c0,.95.1,1.04,1.01,1.14v.42h-3.21v-.44c.89-.09,1.01-.16,1.01-1.13v-4.25h-1.04l-.06-.18.4-.46h.7v-.19ZM446.3,78.88c0-.41.06-.79.13-1.04.04-.24.15-.47.28-.72-.29-.42-.85-.94-1.66-.94-.57,0-.91.32-1.11.66-.23.38-.44.98-.44,1.98v.34h2.8v-.28Z"/><path class="cls-4" d="M454.42,85.79c-.21,0-.53-.13-.67-.28-.21-.21-.29-.41-.37-.65-.6.4-1.29.92-1.76.92-1.04,0-1.79-.87-1.79-1.83,0-.72.38-1.19,1.22-1.47.89-.31,1.98-.72,2.3-.97v-.22c0-1.04-.51-1.63-1.23-1.63-.29,0-.51.12-.67.29-.18.19-.29.51-.42.95-.07.23-.23.35-.46.35-.28,0-.66-.29-.66-.66,0-.22.19-.4.48-.6.4-.29,1.35-.85,2.21-1.03.45,0,.91.13,1.23.4.51.44.66,1.04.66,1.8v2.7c0,.67.26.89.51.89.19,0,.4-.09.54-.18l.18.44-1.3.75ZM453.35,82.08c-.32.16-1.03.47-1.33.62-.59.26-.89.54-.89,1.07,0,.75.59,1.1,1.03,1.1.4-.01.94-.28,1.2-.53v-2.26Z"/><path class="cls-4" d="M456.16,85.61v-.44c.94-.09,1.04-.18,1.04-1.16v-2.98c0-.91-.03-.97-.94-1.1v-.4c.79-.13,1.5-.32,2.13-.59v5.06c0,.98.1,1.07,1.06,1.16v.44h-3.28ZM456.93,76.97c0-.46.37-.81.79-.81s.78.35.78.81c0,.42-.35.78-.79.78-.41,0-.78-.35-.78-.78Z"/><path class="cls-4" d="M462.45,80.55c.48-.79,1.08-1.57,1.8-1.57.53,0,.88.4.88.75,0,.32-.19.62-.48.76-.18.07-.31.04-.4-.04-.22-.21-.38-.29-.63-.29-.4,0-.89.45-1.2,1.29v2.59c0,.95.07,1.04,1.23,1.13v.44h-3.46v-.44c.94-.09,1.04-.18,1.04-1.13v-2.99c0-.97-.06-1.01-.91-1.11v-.4c.73-.12,1.39-.31,2.1-.6v1.61h.03Z"/><path class="cls-4" d="M469.55,80.95c-.29-.89-.79-1.45-1.5-1.45-.56,0-.94.43-.94,1,0,.62.57.95,1.25,1.23,1.12.45,1.89.97,1.89,2.02,0,1.35-1.28,2.04-2.46,2.04-.76,0-1.47-.29-1.73-.51-.1-.21-.25-1.22-.25-1.76l.47-.07c.25.97.89,1.82,1.77,1.82.53,0,1.04-.43,1.04-1.03,0-.63-.42-.95-1.14-1.29-.92-.42-1.89-.89-1.89-2.04,0-1.04.89-1.92,2.27-1.92.62,0,1.01.13,1.32.26.13.32.31,1.22.34,1.58l-.44.12Z"/><path class="cls-4" d="M481.27,82.28c0,2.39-1.76,3.5-3.21,3.5-2.05,0-3.25-1.63-3.25-3.25,0-2.45,1.91-3.55,3.25-3.55,1.82,0,3.21,1.47,3.21,3.3ZM476.2,82.06c0,1.83.82,3.18,2.02,3.18.89,0,1.66-.66,1.66-2.64,0-1.72-.7-3.08-1.98-3.08-.88,0-1.7.86-1.7,2.54Z"/><path class="cls-4" d="M486.39,85.61v-.44c.85-.09.94-.21.94-1.17v-2.45c0-1.03-.37-1.66-1.32-1.66-.6,0-1.17.37-1.63.76v3.39c0,1,.09,1.04.97,1.13v.44h-3.23v-.44c1.01-.1,1.07-.18,1.07-1.13v-2.98c0-.94-.09-1-.89-1.13v-.4c.73-.13,1.45-.32,2.08-.6v1.17c.29-.22.6-.44.98-.67.4-.28.81-.45,1.23-.45,1.19,0,1.92.82,1.92,2.26v2.8c0,1,.09,1.03.97,1.13v.44h-3.09Z"/><path class="cls-4" d="M500.99,85.61c-1.1-1.23-2.24-2.65-3.61-4.25-.37-.42-.59-.47-.85-.41v2.74c0,1.26.15,1.35,1.38,1.44v.48h-3.9v-.48c1.14-.09,1.26-.18,1.26-1.44v-5.67c0-1.3-.12-1.38-1.32-1.47v-.47h3.89v.47c-1.16.09-1.31.19-1.31,1.47v2.49c.35-.07.63-.28,1.07-.67.82-.78,1.73-1.72,2.39-2.54.4-.48.4-.63-.23-.7l-.35-.04v-.47h3.64v.47c-1.13.12-1.51.25-2.42,1.07-.56.51-1.58,1.55-2.55,2.52,1.1,1.38,2.68,3.2,3.43,3.99.75.79,1.08.92,1.79,1v.48h-2.3Z"/><path class="cls-4" d="M510.09,82.28c0,2.39-1.76,3.5-3.21,3.5-2.05,0-3.25-1.63-3.25-3.25,0-2.45,1.91-3.55,3.25-3.55,1.82,0,3.21,1.47,3.21,3.3ZM505.02,82.06c0,1.83.82,3.18,2.02,3.18.89,0,1.66-.66,1.66-2.64,0-1.72-.7-3.08-1.98-3.08-.88,0-1.7.86-1.7,2.54Z"/><path class="cls-4" d="M513.22,80.55c.48-.79,1.08-1.57,1.8-1.57.53,0,.88.4.88.75,0,.32-.19.62-.48.76-.18.07-.31.04-.4-.04-.22-.21-.38-.29-.63-.29-.4,0-.89.45-1.2,1.29v2.59c0,.95.07,1.04,1.23,1.13v.44h-3.46v-.44c.94-.09,1.04-.18,1.04-1.13v-2.99c0-.97-.06-1.01-.91-1.11v-.4c.73-.12,1.39-.31,2.1-.6v1.61h.03Z"/><path class="cls-4" d="M521.77,84.38c-.95,1.16-1.96,1.41-2.45,1.41-1.8,0-2.87-1.48-2.87-3.14,0-1.01.38-1.94.97-2.58.62-.69,1.41-1.08,2.18-1.08,1.25,0,2.24,1.1,2.24,2.29,0,.32-.06.46-.34.51-.25.03-2.13.18-3.87.23.03,1.92,1.14,2.73,2.17,2.73.62,0,1.17-.23,1.7-.73l.26.37ZM517.71,81.36c.81,0,1.63,0,2.48-.03.28-.01.37-.09.37-.31,0-.78-.51-1.45-1.29-1.45-.67,0-1.32.62-1.55,1.79Z"/><path class="cls-4" d="M527.49,85.79c-.21,0-.53-.13-.67-.28-.21-.21-.29-.41-.37-.65-.6.4-1.29.92-1.76.92-1.04,0-1.79-.87-1.79-1.83,0-.72.38-1.19,1.22-1.47.89-.31,1.98-.72,2.3-.97v-.22c0-1.04-.51-1.63-1.23-1.63-.29,0-.51.12-.67.29-.18.19-.29.51-.42.95-.07.23-.23.35-.46.35-.28,0-.66-.29-.66-.66,0-.22.19-.4.48-.6.4-.29,1.35-.85,2.21-1.03.45,0,.91.13,1.23.4.51.44.66,1.04.66,1.8v2.7c0,.67.26.89.51.89.19,0,.4-.09.54-.18l.18.44-1.3.75ZM526.41,82.08c-.32.16-1.03.47-1.33.62-.59.26-.89.54-.89,1.07,0,.75.59,1.1,1.03,1.1.4-.01.94-.28,1.2-.53v-2.26Z"/><path class="cls-4" d="M533.47,85.61v-.44c.85-.09.94-.21.94-1.17v-2.45c0-1.03-.37-1.66-1.32-1.66-.6,0-1.17.37-1.63.76v3.39c0,1,.09,1.04.97,1.13v.44h-3.23v-.44c1.01-.1,1.07-.18,1.07-1.13v-2.98c0-.94-.09-1-.89-1.13v-.4c.73-.13,1.45-.32,2.08-.6v1.17c.29-.22.6-.44.98-.67.4-.28.81-.45,1.23-.45,1.19,0,1.92.82,1.92,2.26v2.8c0,1,.09,1.03.97,1.13v.44h-3.09Z"/><path class="cls-4" d="M544.82,76.08c1.06,0,1.89.16,2.49.6.57.43.95,1.12.95,2.08,0,1.91-1.42,2.83-2.87,3.01-.23.03-.51.03-.67.01l-1.1-.28v2.23c0,1.25.13,1.3,1.5,1.41v.47h-4.09v-.47c1.2-.1,1.32-.21,1.32-1.42v-5.75c0-1.29-.12-1.35-1.22-1.42v-.47h3.7ZM543.62,80.96c.18.07.59.19,1.09.19.97,0,2.11-.51,2.11-2.33,0-1.57-1.01-2.21-2.21-2.21-.41,0-.73.06-.82.18-.12.09-.16.26-.16.64v3.53Z"/><path class="cls-4" d="M554.32,84.38c-.95,1.16-1.96,1.41-2.45,1.41-1.8,0-2.87-1.48-2.87-3.14,0-1.01.38-1.94.97-2.58.62-.69,1.41-1.08,2.18-1.08,1.25,0,2.24,1.1,2.24,2.29,0,.32-.06.46-.34.51-.25.03-2.13.18-3.87.23.03,1.92,1.14,2.73,2.17,2.73.62,0,1.17-.23,1.7-.73l.26.37ZM550.26,81.36c.81,0,1.63,0,2.48-.03.28-.01.37-.09.37-.31,0-.78-.51-1.45-1.29-1.45-.67,0-1.32.62-1.55,1.79Z"/><path class="cls-4" d="M559.51,85.61v-.44c.85-.09.94-.21.94-1.17v-2.45c0-1.03-.37-1.66-1.32-1.66-.6,0-1.17.37-1.63.76v3.39c0,1,.09,1.04.97,1.13v.44h-3.23v-.44c1.01-.1,1.07-.18,1.07-1.13v-2.98c0-.94-.09-1-.89-1.13v-.4c.73-.13,1.45-.32,2.08-.6v1.17c.29-.22.6-.44.98-.67.4-.28.81-.45,1.23-.45,1.19,0,1.92.82,1.92,2.26v2.8c0,1,.09,1.03.97,1.13v.44h-3.09Z"/><path class="cls-4" d="M563.44,85.61v-.44c.94-.09,1.04-.18,1.04-1.16v-2.98c0-.91-.03-.97-.94-1.1v-.4c.79-.13,1.5-.32,2.13-.59v5.06c0,.98.1,1.07,1.06,1.16v.44h-3.28ZM564.2,76.97c0-.46.37-.81.79-.81s.78.35.78.81c0,.42-.35.78-.79.78-.41,0-.78-.35-.78-.78Z"/><path class="cls-4" d="M571.7,85.61v-.44c.85-.09.94-.21.94-1.17v-2.45c0-1.03-.37-1.66-1.32-1.66-.6,0-1.17.37-1.63.76v3.39c0,1,.09,1.04.97,1.13v.44h-3.23v-.44c1.01-.1,1.07-.18,1.07-1.13v-2.98c0-.94-.09-1-.89-1.13v-.4c.73-.13,1.45-.32,2.08-.6v1.17c.29-.22.6-.44.98-.67.4-.28.81-.45,1.23-.45,1.19,0,1.92.82,1.92,2.26v2.8c0,1,.09,1.03.97,1.13v.44h-3.09Z"/><path class="cls-4" d="M579.37,80.95c-.29-.89-.79-1.45-1.5-1.45-.56,0-.94.43-.94,1,0,.62.57.95,1.25,1.23,1.12.45,1.89.97,1.89,2.02,0,1.35-1.28,2.04-2.46,2.04-.76,0-1.47-.29-1.73-.51-.1-.21-.25-1.22-.25-1.76l.47-.07c.25.97.89,1.82,1.77,1.82.53,0,1.04-.43,1.04-1.03,0-.63-.42-.95-1.14-1.29-.92-.42-1.89-.89-1.89-2.04,0-1.04.89-1.92,2.27-1.92.62,0,1.01.13,1.32.26.13.32.31,1.22.34,1.58l-.44.12Z"/><path class="cls-4" d="M588.18,85.26c-.69.1-1.47.31-2.2.53l-.1-.09v-1.03c-.34.25-.66.51-1.08.75-.43.25-.73.37-1.14.37-1,0-1.85-.6-1.85-2.23v-2.79c0-.85-.06-.89-.92-1.04v-.41c.72-.04,1.44-.13,2.16-.26-.04.5-.04,1.25-.04,2.17v1.95c0,1.29.64,1.64,1.32,1.64.53,0,1.06-.22,1.57-.69v-3.36c0-.87-.07-.91-1.16-1.04v-.41c.78-.03,1.55-.1,2.35-.26v4.88c0,.75.13.84.7.87h.41v.46Z"/><path class="cls-4" d="M588.69,85.61v-.44c.95-.1,1.08-.18,1.08-1.13v-6.82c0-.98-.1-1.01-1.04-1.08v-.43c.81-.07,1.72-.32,2.21-.5v8.83c0,.95.13,1.04,1.1,1.13v.44h-3.36Z"/><path class="cls-4" d="M597.46,85.79c-.21,0-.53-.13-.67-.28-.21-.21-.29-.41-.37-.65-.6.4-1.29.92-1.76.92-1.04,0-1.79-.87-1.79-1.83,0-.72.38-1.19,1.22-1.47.89-.31,1.98-.72,2.3-.97v-.22c0-1.04-.51-1.63-1.23-1.63-.29,0-.51.12-.67.29-.18.19-.29.51-.42.95-.07.23-.23.35-.46.35-.28,0-.66-.29-.66-.66,0-.22.19-.4.48-.6.4-.29,1.35-.85,2.21-1.03.45,0,.91.13,1.23.4.51.44.66,1.04.66,1.8v2.7c0,.67.26.89.51.89.19,0,.4-.09.54-.18l.18.44-1.3.75ZM596.39,82.08c-.32.16-1.03.47-1.33.62-.59.26-.89.54-.89,1.07,0,.75.59,1.1,1.03,1.1.4-.01.94-.28,1.2-.53v-2.26Z"/><path class="cls-2" d="M172.95,17.42h-27.97v-5.23h10.72v-5.03h6.58v5.03h10.67v5.23ZM164.98,20.22c1.75.76,3.12,1.83,4.11,3.21.98,1.38,1.48,2.97,1.48,4.77s-.49,3.37-1.46,4.73c-.98,1.36-2.34,2.41-4.1,3.16-1.76.75-3.77,1.13-6.04,1.13s-4.3-.38-6.07-1.13c-1.77-.75-3.15-1.8-4.14-3.16-.99-1.36-1.49-2.93-1.49-4.73s.5-3.38,1.49-4.77c.99-1.38,2.37-2.45,4.14-3.21,1.77-.76,3.8-1.14,6.07-1.14s4.27.38,6.02,1.14ZM184.09,53.53h-32.27v-13.78h6.58v8.5h25.69v5.28ZM155.13,25.22c-.95.71-1.42,1.7-1.4,2.98-.02,1.28.44,2.26,1.39,2.95.94.69,2.22,1.04,3.85,1.04s2.92-.35,3.89-1.05c.97-.7,1.45-1.68,1.45-2.94s-.48-2.27-1.45-2.98c-.97-.71-2.26-1.08-3.89-1.11-1.61.03-2.88.41-3.83,1.11ZM182.38,21.72h6.37v5.39h-6.37v15.33h-6.63V7.27h6.63v14.45Z"/><path class="cls-2" d="M198.8,17.42h9.63v-6.84h6.63v23.88h-22.85V10.58h6.58v6.84ZM229.93,53.53h-32.27v-15.13h6.58v9.84h25.69v5.28ZM208.43,29.28v-6.79h-9.63v6.79h9.63ZM228.22,20.53h6.37v5.44h-6.37v16.01h-6.63V7.27h6.63v13.26Z"/><path class="cls-2" d="M275.1,33.53h-13.68v10.05h18.39v5.39h-43.15v-5.39h18.18v-10.05h-13.11V10.53h33v5.28h-26.37v12.48h26.73v5.23Z"/><path class="cls-2" d="M325.66,48.86h-43.15v-5.39h18.18v-8.7h-13.62V10.22h6.63v7.3h20.57v-7.3h6.58v24.55h-13.57v8.7h18.39v5.39ZM314.27,29.49v-6.68h-20.57v6.68h20.57Z"/><path class="cls-2" d="M350.92,22.17c-1.71,3.44-4.2,6.42-7.46,8.92-3.26,2.5-7.19,4.47-11.78,5.91l-2.69-5.23c4.9-1.54,8.86-3.66,11.86-6.37,3-2.71,4.82-5.8,5.44-9.27h-14.87v-5.39h22.07c0,4.18-.86,7.99-2.56,11.44ZM369.28,53.53h-32.27v-15.28h6.73v10h25.54v5.28ZM368.09,41.71h-6.58v-15.39h-8.44v-5.44h8.44V7.27h6.58v34.45Z"/><path class="cls-2" d="M392.77,26.27c.83,2.7,2.08,5.12,3.76,7.27,1.67,2.14,3.73,3.8,6.16,4.97l-3.99,5.28c-2.45-1.21-4.55-2.91-6.28-5.1-1.74-2.19-3.11-4.77-4.13-7.72-1.05,3.14-2.51,5.89-4.36,8.25-1.86,2.36-4.08,4.17-6.67,5.45l-4.09-5.34c2.57-1.17,4.74-2.88,6.5-5.11,1.76-2.24,3.08-4.77,3.95-7.59.87-2.82,1.31-5.74,1.31-8.74v-7.04h6.63v7.04c-.02,2.88.39,5.68,1.22,8.38ZM411.4,25.4h6.94v5.59h-6.94v23.36h-6.63V7.21h6.63v18.18Z"/><path class="cls-2" d="M422.69,41.04l9.58-.13v-3.99c-1.73-.31-3.23-.86-4.52-1.66-1.29-.79-2.28-1.78-2.97-2.97-.69-1.18-1.03-2.5-1.01-3.95-.02-1.74.47-3.29,1.45-4.62.98-1.34,2.36-2.38,4.14-3.12,1.78-.74,3.81-1.11,6.11-1.11s4.37.37,6.17,1.11c1.8.74,3.19,1.78,4.2,3.12,1,1.34,1.5,2.88,1.5,4.62,0,1.45-.35,2.77-1.05,3.95-.7,1.18-1.69,2.17-2.98,2.97-1.29.79-2.79,1.35-4.52,1.66v3.78c4.42-.22,8.32-.56,11.71-1.01l.47,4.87c-4.58.78-9.27,1.28-14.08,1.52-4.81.23-10.06.35-15.76.35l-.88-5.39h2.43ZM449.83,17.63h-28.65v-5.18h11.09v-5.02h6.58v5.02h10.98v5.18ZM431.52,25.54c-1,.68-1.49,1.62-1.48,2.81-.02,1.21.47,2.15,1.46,2.82.99.67,2.32,1.01,3.98,1.01s3.04-.33,4.04-1c1-.66,1.5-1.61,1.5-2.84s-.51-2.15-1.52-2.82c-1.01-.67-2.35-1.01-4.03-1.01s-2.96.34-3.96,1.02ZM459.68,54.36h-6.58V7.21h6.58v47.14Z"/><path class="cls-2" d="M505.63,41.71h-6.58v-11.19h-10.78c-1.16,1.23-2.53,2.18-4.13,2.86-1.6.68-3.29,1.02-5.09,1.02-2.35,0-4.48-.53-6.4-1.58-1.92-1.05-3.42-2.51-4.52-4.36-1.1-1.86-1.64-3.93-1.62-6.23-.02-2.33.52-4.42,1.61-6.28,1.09-1.86,2.59-3.31,4.51-4.38,1.92-1.06,4.06-1.6,6.42-1.62,1.81.02,3.51.36,5.09,1.04,1.58.67,2.95,1.62,4.11,2.85h10.8v-6.58h6.58v34.45ZM475.78,16.63c-.96.51-1.7,1.25-2.23,2.21-.53.97-.78,2.1-.76,3.39-.02,1.28.24,2.4.76,3.35.53.96,1.27,1.69,2.23,2.2.96.51,2.05.76,3.28.76,1.16,0,2.21-.25,3.15-.76.94-.51,1.68-1.24,2.21-2.2.53-.96.8-2.08.8-3.35s-.27-2.43-.8-3.39c-.54-.97-1.27-1.7-2.21-2.21-.94-.51-1.99-.76-3.15-.76-1.23,0-2.32.25-3.28.76ZM506.77,53.53h-32.43v-15.28h6.63v10h25.8v5.28ZM491.48,22.24c0,1-.12,2-.36,3h7.93v-6.11h-7.93c.24,1.02.36,2.05.36,3.11Z"/><path class="cls-2" d="M549.71,14.21c0,3-.07,5.66-.21,7.97s-.47,4.92-1.01,7.83h6.24v5.34h-18.39v19.06h-6.63v-19.06h-17.98v-5.34h30.07c.55-2.73.91-5.23,1.08-7.5.16-2.27.25-4.69.25-7.26h-26.47v-5.28h33.05v4.25Z"/><path class="cls-2" d="M600.74,48.71h-43.15v-5.28h18.03v-10.67h6.58v10.67h18.54v5.28ZM584.41,19.97c1.34,2.17,3.28,4.04,5.83,5.62,2.55,1.58,5.55,2.64,9,3.17l-2.8,5.49c-4.08-.74-7.62-2.15-10.65-4.22-3.02-2.07-5.33-4.6-6.92-7.59-1.59,2.99-3.89,5.52-6.89,7.6-3,2.08-6.53,3.48-10.57,4.21l-2.8-5.49c3.42-.54,6.39-1.59,8.92-3.17s4.46-3.46,5.79-5.63c1.33-2.18,2-4.4,2.02-6.68v-3.37h7.04v3.37c0,2.3.67,4.53,2.01,6.69Z"/><path class="cls-2" d="M97.28,80.58s-14.73-2.36-14.72-18.05c0,0,14.21,1.75,14.72,18.05Z"/><path class="cls-2" d="M97.39,64.68s-14.38-1.16-14.82-17.84c0,0,14.19,1.6,14.82,17.84Z"/><path class="cls-1" d="M97.39,48.99s-14.38-1.16-14.82-17.84c0,0,14.19,1.6,14.82,17.84Z"/><path class="cls-1" d="M97.39,33.31s-14.38-1.16-14.82-17.84c0,0,14.19,1.6,14.82,17.84Z"/><path class="cls-2" d="M101.61,80.25s-1.46-13.06,14.47-17.72c0,0,1.09,5.68-3.8,11.82-4.89,6.14-6.7,4.25-8.43,6.83-1.73,2.58-2.24-.93-2.24-.93Z"/><path class="cls-2" d="M101.47,64.68s-.22-14.82,14.61-17.62c0,0,1.03,14.57-14.61,17.62Z"/><path class="cls-1" d="M101.68,49.01s-.22-14.82,14.61-17.62c0,0,1.03,14.57-14.61,17.62Z"/><path class="cls-1" d="M101.68,33.3s-.22-14.82,14.61-17.62c0,0,1.03,14.57-14.61,17.62Z"/><path class="cls-2" d="M101.64,80.21l-1.45,2.52c.54-6.6,0-13.26-.01-19.89-.03-11.99-.03-24.12,0-36.08,0-.95-.15-3.33.23-4.03l-1.71,1v61.47c-.73,3.12-2.29,5.88-4.63,8.06-.55.52-2.75,1.59-1.4,2.25,1.23.61,3.3-1.72,4.09-2.57,3.46-3.78,4.36-8.75,7.52-12.25.39-.43.84-.78,1.33-1.09l-3.97.6Z"/><path class="cls-1" d="M99.43,0s-11.06,13.01,0,24.49c0,0,10.84-12.39,0-24.49Z"/><path class="cls-5" d="M66.6,55.09V6.64H0v48.48c0,.71-.05,17.74,12.08,27.84l-.03-.02c.38.34,9.45,8.29,20.73,13.15l.22.09h.61l.23-.11c10.85-5.03,20.75-13.02,20.85-13.1,12.14-10.11,11.92-27.16,11.9-27.88Z"/><polygon class="cls-3" points="2.45 9.11 2.45 9.58 64.3 9.58 64.3 9.11 2.45 9.11 2.45 9.11"/><polygon class="cls-3" points="2.45 22.35 2.45 22.82 64.3 22.82 64.3 22.35 2.45 22.35 2.45 22.35"/><polygon class="cls-3" points="2.31 30.25 2.31 30.73 64.16 30.73 64.16 30.25 2.31 30.25 2.31 30.25"/><path class="cls-3" d="M13.98,20.32c-.33-.25-.64-.49-1.32-1.2,0,0-2.86-3.16-3.29-3.64.11-.14,3.32-4.06,3.32-4.07l.19-.2h-1.62l-3.61,4.47v-4.47h-1.63v9.43h1.63v-4.83l3.77,4.2c.31.42.87.63,1.66.63h1.35l-.32-.23s-.12-.09-.12-.09h0Z"/><path class="cls-3" d="M21.71,10.94c-1.44,0-2.67.48-3.68,1.44-1,.96-1.51,2.14-1.51,3.51,0,1.44.5,2.65,1.5,3.59.97.93,2.16,1.39,3.56,1.39s2.61-.48,3.6-1.44c.99-.96,1.5-2.17,1.5-3.61,0-1.32-.47-2.46-1.39-3.39-.95-.97-2.16-1.47-3.57-1.48M21.64,19.64c-.98,0-1.81-.41-2.46-1.22-.61-.75-.91-1.65-.91-2.66s.31-1.91.92-2.58c.61-.67,1.42-1,2.43-1s1.8.41,2.44,1.21c.58.74.87,1.66.87,2.71s-.3,1.88-.88,2.54c-.61.66-1.42,1-2.4,1h0Z"/><path class="cls-3" d="M44.53,16.14c.19,0,3.03,0,3.03,0v-1.24s-2.84,0-3.03,0v-2.44c.66-.02,3.71,0,3.75,0h.1s0-1.27,0-1.27h-5.5s0,.1,0,.1v9.36h6.07l.02-1.33s-4.24,0-4.43,0v-3.19h0Z"/><path class="cls-3" d="M57.72,11.19h-1.52l-3.86,9.46h1.46s1.25-3.34,1.3-3.47h3.41c.05.13,1.32,3.47,1.32,3.47h1.81l-3.86-9.46h-.07M57.99,15.93h-2.42c.09-.24,1.06-2.69,1.22-3.11.16.41,1.11,2.87,1.2,3.11h0Z"/><path class="cls-3" d="M37.19,18.51s-1.57-1.96-1.96-2.46c.32-.12.89-.37,1.33-.83.47-.49.71-1.06.71-1.67,0-.69-.26-1.26-.78-1.69-.54-.45-1.29-.67-2.23-.67h-3.14v9.46h1.69v-.15c-.04-.32-.05-.8-.05-1.93v-6.21c1.54-.02,2.16.18,2.4.35.32.23.48.56.48,1.01,0,1.04-.77,1.67-2.34,1.9l-.18.02,3.32,4.24c.39.49.97.74,1.71.74h1.35l-.28-.19c-.67-.46-1.41-1.17-2.02-1.95h0Z"/><path class="cls-3" d="M31.25,26.81h1.45v-.59s-1.35,0-1.45,0v-1.17c.31,0,1.77,0,1.79,0h.05v-.6h-2.62s0,.05,0,.05v4.46h2.88l.02-.63s-2.02,0-2.12,0v-1.52h0Z"/><path class="cls-3" d="M9.72,24.45h-.54v2.78c0,.83-.19,1.28-1.21,1.28h-.12c-.68,0-1.02-.43-1.02-1.28,0,0,0-2.78,0-2.78h-.78v2.78c0,.34.01.57.04.71.05.25.15.47.31.65.29.32.72.49,1.25.49h.51c.53,0,.96-.17,1.25-.49.16-.18.27-.4.31-.65.03-.14.04-.37.04-.71v-2.78h-.05Z"/><path class="cls-3" d="M16.51,24.45v.05s0,3,0,3.26c-.17-.21-2.61-3.31-2.61-3.31h-.68v4.51h.59s0-3.11,0-3.38c.17.21,2.65,3.37,2.65,3.37h.65s0-4.51,0-4.51h-.59Z"/><polygon class="cls-3" points="20.43 24.45 20.43 28.96 21.21 28.96 21.21 24.45 21.16 24.45 20.43 24.45 20.43 24.45"/><polyline class="cls-3" points="48.66 28.96 49.44 28.96 49.44 27.97 49.44 25.45 49.44 24.5 49.44 24.45 49.39 24.45 48.65 24.45 48.65 24.45 48.65 25.45 48.65 27.97 48.66 28.96"/><path class="cls-3" d="M27.22,24.45s-1.2,3.3-1.29,3.54c-.09-.24-1.27-3.54-1.27-3.54h-.89l1.68,4.52h.71s1.74-4.52,1.74-4.52h-.68Z"/><path class="cls-3" d="M44.84,26.68s-.61-.3-.61-.3l-.52-.25c-.38-.2-.57-.42-.57-.65,0-.19.09-.33.27-.43.13-.08.33-.12.57-.11.39.01.8.13,1.01.29l.08.06v-.8h-.03c-.32-.11-.66-.16-1.02-.16-.47,0-.86.09-1.17.27-.37.21-.56.53-.56.94s.21.77.62,1.03c0,0,.22.11.22.11l.9.44c.38.2.57.43.57.69,0,.2-.1.36-.31.48-.19.11-.39.17-.6.17-.49,0-.94-.12-1.35-.36l-.09-.05.12.79h.03c.36.14.78.21,1.22.21.55,0,1.02-.14,1.36-.41.32-.26.48-.61.48-1.02,0-.37-.21-.68-.62-.95h0Z"/><path class="cls-3" d="M52.39,24.43v.59s1.16,0,1.26,0v3.93h.78s0-3.83,0-3.93h1.29v-.59h-3.32Z"/><path class="cls-3" d="M60.8,24.44s-1.15,1.78-1.23,1.9c-.08-.12-1.21-1.9-1.21-1.9h-.9s1.61,2.53,1.63,2.55c0,.03,0,1.97,0,1.97h.78s0-1.94,0-1.97c.02-.03,1.69-2.55,1.69-2.55h-.76Z"/><path class="cls-3" d="M39.21,27.94s-.75-.93-.94-1.17c.16-.06.43-.18.63-.39.23-.24.34-.51.34-.8,0-.33-.12-.6-.37-.81-.26-.21-.61-.32-1.06-.32h-1.5v4.51h.8v-.07c-.02-.15-.02-.37-.02-.92v-2.96c.73,0,1.03.09,1.14.17.16.11.23.27.23.48,0,.5-.37.8-1.11.91h-.08s1.58,2.03,1.58,2.03c.19.23.46.36.81.36h.65l-.14-.09c-.32-.22-.67-.56-.96-.92h0Z"/><path class="cls-3" d="M64.28,55.12v.1c0,1.43-.26,16.96-11.06,25.96-.09.07-9.51,7.67-19.93,12.6-10.74-4.73-19.61-12.49-19.7-12.57l-.03-.02C2.44,71.92,2.32,55.74,2.32,55.14v-21.9h61.96v21.88Z"/><path class="cls-5" d="M28.08,86.02h.85c.12,0,.07-.11.07-.11-.35-1.53-.17-2.73-.1-3.08,0,0,.03-.1-.09-.1h-.84c-.11,0-.07.09-.07.09.28,1.18.17,2.66.1,3.09,0,0-.05.11.07.11h0Z"/><path class="cls-5" d="M31.24,82.63c-1.35.13-1.27,1.72-1.27,1.72.08,1.44,1.57,1.71,1.57,1.71-.41,1.1-1.49,1.43-1.49,1.43-.26.1-.07.17-.07.17.33.11.8-.08.8-.08,1.99-.89,2.04-2.98,2.04-2.98.04-2.13-1.58-1.97-1.58-1.97M31.72,85.55c-.65.02-.8-.99-.8-.99-.17-1.11.26-1.17.26-1.17.46-.14.65.8.65.8.22,1.09-.11,1.36-.11,1.36h0Z"/><path class="cls-5" d="M36.26,83.91s-.18-1.32-1.41-1.3c0,0-1.22-.03-1.28,1.66,0,0-.05,1.79,1.5,1.71,0,0,1.51-.09,1.2-2.07M35.08,85.42c-.58.21-.65-.98-.65-.98-.06-1.14.4-1.25.4-1.25.47-.12.6.72.6.72.21,1.3-.35,1.51-.35,1.51h0Z"/><path class="cls-5" d="M36.62,86.44c1.31.26,1.65-.67,1.65-.67.42-1.31-1.22-1.38-1.22-1.38l.26-1.69s1.65.08,2.09-.14c0,0,.1-.07.04.18,0,0-.09.56-.63.6l-.81.07-.08.48s1.4-.03,1.37,1.48c0,0-.05,1.17-1.42,1.46,0,0-.64.14-1.38-.16,0,0-.11-.05-.05-.14,0,0,.05-.11.17-.08h0Z"/><path class="cls-5" d="M31.8,54.8c.1-.13.24-.04.35,0,.11.03.11.23.17.34.03.07.24.28.26.34.17.76,0,1.76-.34,2.33-.1.18-.25.27-.36.28-.14.01-.19-.2-.24-.28-.22-.31-.05-1.03,0-1.37.06-.44-.28-1.14-.07-1.46,0,0,.24-.18.24-.18h0Z"/><path class="cls-5" d="M21.47,55.6c.18-.06.45.04.56,0l.25-.1c.29-.18.57-.13.86-.1.15.02.58.2.72.21.23.03,1.32.14,2.47.31-.01,0,.62-.08.46-.26.1.11-.02-.09-.25-.18l-.08-.09s-.2-.18.17-.3c-.14.04.24-.06.32-.14.15-.16-.07-.33-.07-.33-.55-.18-1.16.17-1.98.08-.4-.03-.98-.26-1.55-.17-.62.11-1.53.46-1.97.8,0,0-.21.36.08.27h0Z"/><path class="cls-5" d="M28.38,51.13c.56-.03.58.55.6.49-.06.41-1.08.45-1.32.77-.71.92-.41,1.81-2.09,1.9,0,0-.34-.08-.21-.22.11-.11.51-.22.66-.31.22-.12.2-.47.34-.69.03-.05.22-.12.27-.17.47-.64.52-1.28,1.35-1.66.03-.02.34-.11.4-.12h0Z"/><path class="cls-5" d="M33.75,48.64c.19-.11.38,0,.51.11.07.05.69,1.52.72,1.67.08.53.14,1.77,0,2.16-.21.55-.72.98-.61,1.95.06.58.31,1.02.56,1.52.03.08.28.57.29.67.09.53-.19,1.21-.24,1.63-.13,1.06.3,2.02.13,3.04-.07.44-.21.66-.45.92l-.19.16c-.05.11-.15.14-.24.21l-.12.12c-.18.04-.2.15-.27.16-.45.1-.55-.16-.52-.1-.46-1.3.31-2.81-.08-4.07-.09-.29-.43-.57-.48-.88-.16-1.12.89-1.71.88-2.47,0-.54-.71-1.24-.87-1.77-.2-.62-.33-1.81-.06-2.59.06-.19.31-.51.37-.76.13-.48.33-.88.4-1.21.02-.1.09-.24.14-.33.02-.03.11-.15.14-.17h0Z"/><path class="cls-5" d="M47.15,45.96c.76-.09,1.1.21.74.86l-.15.14c-.06.02-.26.29-.3.32-.37.27-.71.44-.99.78-.1.11-.17.41-.29.51-.19.14-.92.46-1.1.49-.92.15-2.17-.77-2.3-1.3-.12-.45,0-.9.2-1,.31-.16,1.13-.08,1.4-.1.71-.05,1.15-.01,1.69-.2.33-.11.7-.45,1.1-.49h0Z"/><path class="cls-5" d="M43.24,45.66s.43.18.82.09c.27-.07.78-.3,1.03-.34.15-.04.37.04.52,0,.42-.13,1.19-.95.27-1.04-.34-.03-1.34.35-1.65.43-.31.08-.51.13-.77.27-.07.04-.43.33-.38.28,0,0-.24.2.16.31h0Z"/><path class="cls-5" d="M36.63,47.21c-.27-.04-.27-.49-.95-.34-.47.1-.6.8-1.29.78l-.34-.17c-.3-.07-.52.03-.78-.1-1.22-.57.94-3.48,1.64-3.44.04,0,.4.13.44.17.22.19.22,1,.42,1.3.16.21.4.19.61.34.22.17.64.74.69,1.04,0,0,.11.5-.43.42h0Z"/><path class="cls-5" d="M47.86,70.77s.01-.02,0,0h0Z"/><polygon class="cls-5" points="47.86 70.77 47.85 70.77 47.85 70.77 47.86 70.77 47.86 70.77"/><path class="cls-5" d="M57.54,45.13s0,.01,0,.02c0,0,0,0,0,0,0,0,0-.02,0-.02h0Z"/><path class="cls-5" d="M46.65,44.31s.01-.03.02-.04c-.02.05-.03.05-.02.04h0Z"/><path class="cls-5" d="M41.4,59.03s-.01,0-.01,0c.01.01.02.01.01,0h0Z"/><path class="cls-5" d="M31.4,47.42c-.47.26-1.5.67-1.71,1.12-.12.24-.12.45-.22.73-.01.03-.14.08-.18.17-.5,0-.94-.03-1.38.08-.34.1-.83.46-1.21.52-.77.13-1.35-.21-2.07-.09-.32.06-.53.39-.79.52-.23.11-.32.11-.49.27l-.16.18c-.03.07-.1.24-.15.33-.16.23-.22.47-.26.73-.04.25-.18.83-.31,1.08-.06.12-.39.38-.43.49-.02.07-.1.15,0,.26-.11-.12-.09.12.53.15.68.01,2.17-.44,2.17-.44l.71-.38c.14-.11.69-.53.81-.67.52-.64,1.91-3,3-2.38l.2.14c.26.43-.07,1.68-.26,1.96l-.24.29c-.19.06-.33.56-.36.8-.05.37.06.71.09.91.06.45.1,1.01-.17,1.56-.06.11-.22.3-.17.6.05.34.53.59.6.87.04.14.17.16,0,.43-.09.15-.49.39-.6.52-.16.16-.02.41.08.51.3.27.55.3.78.61.33.42.31.79,1.04.86.57.05,1.38.09,1.04-.69l-.17-.29c-.2-.51-.56-.96-.61-1.52-.07-.71.5-1.07.26-1.64-.19-.44-1.05-.39-1.12-.96-.04-.32.29-.99.35-1.3.07-.41-.04-.68.09-1.03.09-.25.46-.54.5-.86.08-.57-.36-.93-.17-1.55.09-.32.6-.28.78-.52.24-.32.11-.76.25-1.21.01-.05.14-.32.16-.37-.01-.02.1-.58.1-.58-.07-.35-.29-.21-.32-.22M25.94,51.98c-.48.11-.53-.92-1.69-.52-.06.02-.39.32-.41.37-.14.31-.06,1.09-.22,1.17,0,0-.45.11-.36-.46.14-.91.31-1.08.77-1.46.06-.05.23-.18.32-.2.55-.12,1.56.08,1.74.36.16.23-.17.74-.15.74h0Z"/><path class="cls-5" d="M57.54,45.15c-.08-.42-1.23-.39-1.69-.95-.17-.23-.04-.35,0-.52.13-.49,1.18-.2,1.42-.64.1-.18.13-.72.07-.8-.65-.81-2.04-.42-3.02-.81-.47-.19-1.06-.58-1.55-.77-.62-.24-1.1-.27-1.72-.52-.14-.06-.42-.26-.57-.32-.69-.28-1.24-.33-1.93-.63-.08-.03-.29-.15-.38-.19-.28-.12-.36-.13-.66-.24-1.07-.39-2.42-.73-3.97-.63-.68.04-1.46-.09-2.5.21-.36.09-.87.4-1.2.51-.24.07-.44.11-.66.21-.3.12-.57.3-.98.4-1.19.27-2.77-.03-3.97.17-1.04.17-1.64.82-2.5,1.12-.26.09-.37.06-.63.15-.15.05-.5.15-.62.21-.36.18-.59.24-.99.41-.2.09-.44.28-.64.37-.29.14-.31.18-.55.36l-.2.14s-.42.37-.47.43c-.17.18-.33.42-.47.6-.44.51-1.1,1.15-1.64,1.55-.2.14-.34.11-.51.27-.21.16-.39.32-.58.47-.45.32-.9.54-1.4.81l-.32.21c-.42.28-.4.39-.84.66-.28.2-.41.49-.67.71-.17.13-.37.56-.49.74-.54.79-.75,1.96-1.13,2.95-.12.28-1.06,1.64-1.29,1.72l-.17.16c-.13.11-.13.15-.26.27-.28.25-.56.39-.77.69-.18.23-.28.51-.44.77-.25.41-.65.85-.86,1.3-.08.16-.14.33-.2.48-.02.02-.04.05-.04.05-.11.13-.29.69-.29.69-.19.44-.65.69-1.25,1.55-.7.05-3.13-.57-4.78-1.35.37.41,2.22,1.66,4.39,1.89-.14.21-.16.43-.42.5-.87.21-2.37-.26-4.4-.97.12.28,1.9,1.33,4.54,1.49-.39.46-4.01.34-6.84-.43-.11.3,3.54,1.11,5.54,1.08-.34.18-1.24.38-1.82.59-.91-.1-2.19-.26-2.43-.35.06.18.96.43,1.71.6-.72.26-1.78.41-2.2.49.3.08,1.46-.11,2.67-.4,1.06.2,2.69.42,3.59.38-.23.11-1.07.65-1.73,1.04-1.7.16-3.55.3-3.95.35.22.03,1.71.06,3.3.02-.97.57-2.01,1.16-2.5,1.39.74-.19,2.05-.69,3.4-1.41,1.33-.05,2.59-.16,3.11-.34-.18.39-1.26,2.25-2.26,2.68.43-.07,1.83-.46,2.67-2.57.3.13.64.21,1.04.23.22.33.75,1.19,1.74,1.24.2.58,2.05,3.59,4.65,2.42-.75-.41-1.2-.83-1.57-2.03,1.15-.07,4.2,1.6,5.12,5.21-.72-.24-1.63-.66-1.72-1.02-.2.84-.33,1.91,1.52,3.78.04.4.03.88.11,1.33.31.32.66.56.98.83.02.52-.05,1.24,1.33,1.65.47.39,1.97.8,2.19,1.06.45.14,1.12.17,1.6.14,0,0,.65-.11.83-.36.33-.02.77-.03,2.77-2.16.42-.5,0-3.25.1-3.92.2-.49.28-.93.55-1.53,0,0,.27-.59.78-.83.03-.02.06-.02.11-.03,1.15-.26,2.65.82,3.36,1.12.26.11.39.05.6.18.1.05.25.29.35.35.25.14.5.1.78.25.41.23,1.25,1.44,1.98,1.3.23-.05.41-.57.6-.7.34-.21.82-.19,1.12-.43.35-.27.2-.58.26-.95,0-.02.16-.19.18-.26.17-.02.54,0,.78-.08.03-.01.13-.13.17-.17.15-.16.04-.32,0-.45-.05-.14-.4-.3-.51-.42-.26-.26-.7-.63-.87-.95-.08-.16.02-.19-.09-.35-.11-.18-.42-.37-.51-.6-.33-.74-.2-2.39-.35-2.62-.14-.22-.31-.19-.44-.4-.29-.45.07-1.92.09-2.5.03-.47-.43-.18-.43-.18-.38.93-.34,1.34-.43,2.67-.01.12-.17.83-.17.95,0,.47.27,1.25.08,1.81-.06.18-.44.53-.95.52-.19,0-1.16-.25-1.38-.34-.04-.02-.25-.26-.26-.26-.48-.38-.58-.02-.6.17-.01.2.07.24.1.35.02.11.21.52.19.56,0,.04-.17.5-1.07-.03-.68-.41-1.34-1.54-1.38-1.73-.09-.43.04-.76.12-.91.34-.31.74.12,1.08.3.09.04.29.19.4.21.2.03.52-.04.56-.04,1.31-.08,2.67.4,2.9-.48.15-.55-.4-.85-.49-1.08-.12-.28-.06-.3-.13-.61-.01-.02-.1-.22-.12-.25-.13-.23-.04-.43-.17-.69-.14-.28-.52-.45-.69-.69-.22-.32-.22-.72-.52-.95-.44-.36-2.21-.89-2.42-1.3-.34-.65.08-1.85-.09-2.67-.09-.48-.24-.74-.54-1.04-.11-.12-.17-.29-.13-.44.08-.29.23-.21.32-.85.06-.35-.03-.75,0-1.12,0-.06.17-.62.18-.69.08-.96-.05-1.97-.26-2.67-.1-.34-.42-.63-.52-.95-.09-.27.02-.43-.09-.69-.09-.24-.39-.4-.51-.6-.23-.34-.17-.93-.52-1.13-.26-.15-.36.06-.34,0-.09.32-.07.62.09,1.03.06.18.39.43.44.61.07.32-.05.71,0,1.04l.17.35c.13.87-.34,2.01-.69,2.5-.25.32-.99.73-1.03,1.21-.04.3.08.31.16.43.11.16.47.36.52.52.04.11.08.09.13.2l.04.23c.06.6-.73.74-.35,1.46.11.21.48.21.69.34.39.25,1.14.95,1.21,1.55.03.26,0,1.65-.08,1.82-.18.38-1.15.53-1.04,1.3.12.83,2.31.6,2.93,1.03.29.2.35.65.44,1.04.05.21-.16.29-.26.34-.23.13-.4.03-.69.09-.71.15-1.85.46-2.15,1.04-.38.66.07,1.56-.09,2.32-.16.69-.67,1.52-1.04,2.08-.23.34-.52.67-.63,1.14-.25,1.02-.08,2.22-.15,3.41h-.01s.04.63-.37,1.08c-.47.52-2.12,2.06-3.28,2.06-.43-.01-.61-.16-1.08-.5-.3-.03-.98-.19-1.38-.6-.12-.22-1.41-1.52-.6-1.9.76-.35,1.99.41,2.56.78.23,0,1.9.08,3.66-2.23-.08-1.21-.18-2.77-.32-3.05-.18-.59-1.19-1.65-1.4-2.27-.13-.51-.37-1.51-.22-2.21-.07-.77-.56-.95-.76-1.57-.06-.16-.12-.28-.16-.33-.06-.23-.1-.43-.24-.64-.31-.47-.61-.57-.89-1.03-.29-.48-.24-1.07-.69-1.38-.25-.17-.58-.18-.86-.34-.2-.12-.46-.41-.69-.52-.27-.12-.35-.16-.62-.28-.14-.07-.38-.17-.5-.24-.12-.07-.24,0-.34-.09-.33-.28-.09-.54-.26-1.03-.02-.06-.15-.06-.18-.17-.14-.04-.38-.26-.57-.13-.26.19-.33.13-.49.53-.09.26-.27,1.03-.44,1.21-.15.19-.35.44-.6.61-.23.12-.43.11-.43.11l-.65.09-.32.49s-.35-.05-.54-.05c-.05.12-.48.45-.61.56-.55.32-.88.09-.92-.02-.03-.1-.2-.32.17-.54,1.26-.35,2.82-2.05,2.95-2.41-.16.25-2.78,1.69-3.26,1.89.52-1.23,3.73-3.04,3.92-3.25-.82.12-3.55,1.78-4.03,2.51-.45.74-.99.53-1.49.51-.49-.02-.45.51-.47.83,0,.32-.25.96-.04,1.07.34.29,1.22-.88,1.5-.25.15.7-1.66.67-1.65,1.24-.09.3,1.68.4,2,.72-.56.41-1.95.55-2.36.57-.26.02-.49.01-.62-.01-.23-.04-.53-.25-.79-.68-.5-.91.35-1.54.36-1.77.02-.24-.09-.11-.11-.5-.01-.38.41-.45.52-.53.12-.09-.03-.19,0-.56.22-.84,1.59-1.81,1.24-2.08-.32-.17-.98.56-1.24.9-.94,1.21-2.04.83-2.41.85-.83.04-.68-.86-.1-.8.67-.14.62-1.06,1.09-.97.15.68-.6.77-.25.92.48.19.52-.44.68-.7.14-.27.82-.84.74-.99-.2-.07-.69.29-.92.46-.55-1.36.83-2.4.9-2.81.45-.71,2.98-1.62,3.02-2.71l.07-.06s.05-.03.12.1h0c.02.07.03.14.05.21,0,.09,0,.17,0,.17v-.1c.03.17.02.32.03.28v.16c.02.1.15.15.17.16.05,0,.19-.05.32-.2.02-.02.17-.16.17-.2.24-.18.29-.2.46-.44.43-.63-.4-1.56-.17-2.41.16-.57.69-1.24.69-1.24.14-.32-.08-.32-.08-.32-.33-.06-.56.3-.52.25-.43.4-.55.6-.86,1.13,0,0-.26.24-.34-.09-.15-.53.46-1.58.65-1.72.35-.24.71-.35,1.16-.53.22-.09.56-.45.78-.51.11-.04.23-.06.34,0,0,0,.17.12.09.51,0,0-.17.47-.11.64.04.12.02.23.28.23.62.01,2-.13,2.41-.35.09-.04.18-.17.27-.25.13-.13.09-.32,0-.34l-.27-.09c.2-.03-1.17-.04-.95-.08-.24.04.32-.64.26-.96-.03-.15-.3-.22-.34-.34-.03-.08-.17-.19,0-.26l.2-.08c.07-.05.14-.13.23-.17.43-.2,1.21-.1,1.55,0,.04.02.59.17.78.69.05.15.09.31.17.43.26.36,1.02.48,1.47.06.09-.08.2-.28.26-.4.44-1.02-.21-1.71-1.04-1.99-.33-.12-.87-.15-1.29-.26-.3-.08-.12-.33-.03-.4l.13-.11c.16-.24.68-.46.86-.52.46-.17.91-.34,1.55-.08.1.03.35.23.42.25.49.12.68.16,1.13-.08.18-.09.15-.11.17-.17.16-.46-.16-.77-.15-.72-.1-.62,1.68.15,1.96-.25.26-.35.09-1.03.43-1.29.04-.02.24-.17.26-.17.33-.07.62.07.88.17l.28.13c.56.23,1.04.36,1.35.81.19.3.15.74.34,1.04.08.13.26.21.36.34.08.09.23.16.34.22.16.1.22.14.43.21.15.06.37.29.52.35.53.21,1.16.18,1.73.17.34-.01.54.18.86.09.16-.06.12-.35.01-.47-.21-.26-.36-.2-.7-.39-.13-.08-.3-.35-.43-.43-.39-.26-.96-.29-1.2-.69-.03-.06-.08-.18-.08-.25l-.1-.18c-.48-.97-.63-1.54-.17-1.72.29-.11.91-.05,1.22-.17.07-.04.2-.23.25-.26.68-.33,1.97-.71,2.68-.34.21.1,0,.65.08.86.04.09.2.25.38.31,1.48.4,2.96.33,4.05.85.65.31,1.14.78,1.73,1.29.5.45-.09.95.42,1.1-.35.05-.65.09-.71-.1-.02-.05-.12-.21-.17-.25-.39-.37-.84-.94-1.38-1.12-.28-.1-.4-.01-.7-.09l-.35-.12c-.37-.11-.4-.07-.77-.14-.16-.03-.53-.23-.7-.25-.73-.11-1.14.18-1.81,0-.31-.09-.71-.58-.96-.71-.31-.18-.6-.24-.94-.35-.14-.04-.21-.04-.32.02-.19.11-.13.28-.03.42.06.08.11.21.17.25.24.18.73.18.86.43.38.75-.18,1.02-.26,1.24-.04.14-.15.24,0,.43.08.1.25.22.35.25.35.15.63.09.95.26.23.12.48.54.77.61.69.15.86-.36,1.21-.44.5-.11.81.15,1.38,0,.19-.05.3-.28.43-.34.33-.18.66-.2.86-.09,0,0,.22.11-.09.26-.18.1-.33.1-.51.19-.13.07-.24.24-.26.27-.06.12-.1.3-.1.31.05.1.13.15.18.18.6.21,1.21-.18,1.73-.26.38-.06,1.45,0,1.76.23,0,0,.28.06.1.58-.11.31-.61.54-.79.8-.11.15-.23.43-.34.58-.18.24-.21.23-.4.44l-.13.18c-.07.22-.95.97-1.12,1.22-.1.15-.15.3-.25.46-.16.23-.27.26-.35.4-.25.36-.75,1.1-1.16,1.29-.18.08-.44,0-.69-.06-.17-.05-.36-.37-.51-.43-.6-.28-1.27-.2-1.81-.52-.27-.16-.51-.62-.7-.86-.13-.16-.24-.45-.43-.52-.31-.11-1.06,0-1.2.26-.28.54.46,1.94.52,2.51.04.49-.18.71,0,1.12.08.21.41.26.51.43.47.74.06,1.78.17,2.76.04.31.23.69.17,1.13-.07.69-.96,1.28-.6,2.33.01.04.18.16.19.18.14.07.35.04.5,0,.29-.1.57-.68.87-.86.03-.04.13-.08.18-.08.03-.06.11-.06.16-.09.13-.1.18-.1.25-.26.12-.28.08-.56.17-.96.09-.33.39-.92.43-1.3.1-1.06-.66-3.12-.11-3.46.21-.13.42-.38.78-.43.16-.04.68.12.91.12,0,0,0,0,0,0-.28.66.75,2.39.67,3.34-.2,2.32-1.72,3.6-3.02,4.84-.15.15-.02.31.09.43.26.25.89.14,1.21.09.47-.1.68-.31,1.03-.43.13-.05.28.03.43,0,.36-.1.66-.58.86-.87,0,0,.42-.45.51.15v.03c0,.56-.09,1.17,0,1.72.1.65,1.28,2.59,1.9,2.68,1.44.21-.03-1.6-.09-1.73-.23-.55-.46-1.52-.43-2.24,0-.26.23-.8.26-1.04.01-.12-.05-.41,0-.51.11-.23.87-.31,1.04-.61.04-.09-.02-.24,0-.34.04-.21.19-.59.35-.77.1-.13.25-.2.43,0,.15.17.19.55.43.83l.21.23c.25.16.67-.05.56-.03.27-.07.24-.35.35-.44.02-.01.17-.08.17-.08.62-.64-.76-1.22-.78-1.82-.01-.66.15-1.43-.08-2.16-.06-.18-.4-.44-.44-.6-.09-.42.12-.86.17-1.12.1-.55-.09-1.4.09-1.64.1-.13.27-.23.6-.17.22.04.36.4.52.52.57.45,1.22.71,2.16.6.12,0,.21-.18.23-.23.06-.17.05-.39-.06-.54-.34-.46-1.65-.8-1.72-1.03-.05-.17-.26-.4-.03-.51-.13.07.81-.03,1.15-.1.44-.1.47-.53.78-.69.43-.23,1.06-.03,1.3-.43.14-.26.03-.63.17-.87.17-.3.68-.37.95-.61.08-.07.04-.34.03-.42M22.86,65.32c-.17-.19-.03-.56.29-.71.58-.27.81.04.94.19.56.87,1.28,1.99,1.82,2.44-.5.05-2.35-.52-3.05-1.92M27.6,74.05c-.3,0-2.22-1.62-1.93-2.62.57.42,1.85,1.31,2.01,1.3.17.1.31,1.21-.08,1.33M29.84,74.05c-.25-.22-2.11-2.19-1.65-3.1.51.51,1.93,1.82,2.44,1.95.14.37.12,1.4-.79,1.15M30.04,66.54c.33.49.77.77.75,1.83-.03.26.05.31.27.29.2-.06.09-1.27.68-1.19.5.07.16.77.41,1.55.09.28.66,1.28.5,2.99-.01.44-.86,1.02-1.34.68-.39-.24-.39-.53-.62-2.34-.1-1.07-1.4-1.44-1.95-1.92-.55-.41-.24-.61-.34-1.35-.32-1.07-1.57-1.58-1.15-2.29.13-.18.26-.35.65-.2.02.53,1.29.94,2.14,1.96M21.15,63.15s-.04.02.01,0c0,0,0,0-.01,0,.13-.06.69-.32.83-.37.59-.21.9.11,1.45-.19.13-.08.27-.29.39-.38.1-.09.29-.08.41-.17.3-.2.86-.85,1.25-.92.22-.04.22.02.33.03,0,.02.17-.03.12.3-.1.64,1.4,0,2.38.23.67.16,1.32.39,1.15.82.02-.05-.2.13-.25.17-.46.33-.82-.03-1.06-.07-.4-.05-.69.07-1.1.02,0,0-.5-.17-.5-.17-.31-.02-.76.15-1,.17-.45.03-.67-.13-1.08-.08-.2.02-.52.28-.66.33-.13.05-.29.1-.42.14-.09.02-.31.15-.42.19-.41.2-.66.2-1.16.34l-.29.08c-.63.08-.57-.35-.37-.46M19.61,65.62c.68-.16.88.02,1.2.79.24.46.75,1.06.94,1.35-.78.09-2.03-.98-2.38-1.56-.22-.29.12-.51.23-.58M10.97,62.38c.89-.25,1.68-.51,2.01-.7.12,0,.24,0,.36-.01.05.24.14.48.28.72.03.05.06.1.09.14-.54.01-1.63-.06-2.75-.14M12.83,63.94c.46-.28.9-.57,1.31-.88.19.22.4.43.63.63-.24.07-1,.16-1.94.25h0Z"/><path class="cls-5" d="M21.15,63.15s.01,0,.01,0c-.05.02-.04.02-.01,0h0Z"/></g></svg>